<mxfile host="app.diagrams.net" agent="Mozilla/5.0 (Windows NT 10.0; Win64; x64) AppleWebKit/537.36 (KHTML, like Gecko) Chrome/141.0.0.0 Safari/537.36 Edg/141.0.0.0" version="28.2.7">
  <diagram name="Página-1" id="09aGdgEOs7ynTsPnOihw">
    <mxGraphModel grid="1" page="1" gridSize="10" guides="1" tooltips="1" connect="1" arrows="1" fold="1" pageScale="1" pageWidth="827" pageHeight="1169" math="0" shadow="0">
      <root>
        <mxCell id="0" />
        <mxCell id="1" parent="0" />
        <mxCell id="NDkicvjiBp9xYqSU2yI_-99" value="Frontend" style="shape=folder;fontStyle=1;tabWidth=110;tabHeight=30;tabPosition=left;html=1;boundedLbl=1;labelInHeader=1;container=1;collapsible=0;recursiveResize=0;whiteSpace=wrap;" vertex="1" parent="1">
          <mxGeometry x="700" y="-610" width="220" height="150" as="geometry" />
        </mxCell>
        <mxCell id="NDkicvjiBp9xYqSU2yI_-82" value="Backend" style="shape=folder;fontStyle=1;tabWidth=110;tabHeight=30;tabPosition=left;html=1;boundedLbl=1;labelInHeader=1;container=1;collapsible=0;recursiveResize=0;whiteSpace=wrap;" vertex="1" parent="1">
          <mxGeometry x="30" y="-440" width="1600" height="160" as="geometry" />
        </mxCell>
        <mxCell id="NDkicvjiBp9xYqSU2yI_-39" value="Módulos de Negócios (SGO)" style="shape=folder;fontStyle=1;tabWidth=110;tabHeight=30;tabPosition=left;html=1;boundedLbl=1;labelInHeader=1;container=1;collapsible=0;recursiveResize=0;whiteSpace=wrap;" vertex="1" parent="1">
          <mxGeometry x="20" y="-150" width="1610" height="150" as="geometry" />
        </mxCell>
        <mxCell id="NDkicvjiBp9xYqSU2yI_-7" value="Módulo de Resultados" style="html=1;dropTarget=0;whiteSpace=wrap;" vertex="1" parent="NDkicvjiBp9xYqSU2yI_-39">
          <mxGeometry x="1030" y="60" width="180" height="50" as="geometry" />
        </mxCell>
        <mxCell id="NDkicvjiBp9xYqSU2yI_-8" value="" style="shape=module;jettyWidth=8;jettyHeight=4;" vertex="1" parent="NDkicvjiBp9xYqSU2yI_-7">
          <mxGeometry x="1" width="20" height="20" relative="1" as="geometry">
            <mxPoint x="-27" y="7" as="offset" />
          </mxGeometry>
        </mxCell>
        <mxCell id="NDkicvjiBp9xYqSU2yI_-9" value="Módulo de Relatórios" style="html=1;dropTarget=0;whiteSpace=wrap;" vertex="1" parent="NDkicvjiBp9xYqSU2yI_-39">
          <mxGeometry x="1400" y="60" width="180" height="50" as="geometry" />
        </mxCell>
        <mxCell id="NDkicvjiBp9xYqSU2yI_-10" value="" style="shape=module;jettyWidth=8;jettyHeight=4;" vertex="1" parent="NDkicvjiBp9xYqSU2yI_-9">
          <mxGeometry x="1" width="20" height="20" relative="1" as="geometry">
            <mxPoint x="-27" y="7" as="offset" />
          </mxGeometry>
        </mxCell>
        <mxCell id="NDkicvjiBp9xYqSU2yI_-1" value="Competição" style="html=1;dropTarget=0;whiteSpace=wrap;" vertex="1" parent="NDkicvjiBp9xYqSU2yI_-39">
          <mxGeometry x="10" y="60" width="180" height="50" as="geometry" />
        </mxCell>
        <mxCell id="NDkicvjiBp9xYqSU2yI_-2" value="" style="shape=module;jettyWidth=8;jettyHeight=4;" vertex="1" parent="NDkicvjiBp9xYqSU2yI_-1">
          <mxGeometry x="1" width="20" height="20" relative="1" as="geometry">
            <mxPoint x="-27" y="7" as="offset" />
          </mxGeometry>
        </mxCell>
        <mxCell id="NDkicvjiBp9xYqSU2yI_-3" value="Módulo de Inscrições" style="html=1;dropTarget=0;whiteSpace=wrap;" vertex="1" parent="NDkicvjiBp9xYqSU2yI_-39">
          <mxGeometry x="715" y="60" width="180" height="50" as="geometry" />
        </mxCell>
        <mxCell id="NDkicvjiBp9xYqSU2yI_-4" value="" style="shape=module;jettyWidth=8;jettyHeight=4;" vertex="1" parent="NDkicvjiBp9xYqSU2yI_-3">
          <mxGeometry x="1" width="20" height="20" relative="1" as="geometry">
            <mxPoint x="-27" y="7" as="offset" />
          </mxGeometry>
        </mxCell>
        <mxCell id="NDkicvjiBp9xYqSU2yI_-5" value="Módulo de Alocação de&lt;div&gt;&amp;nbsp;Locais&lt;/div&gt;" style="html=1;dropTarget=0;whiteSpace=wrap;" vertex="1" parent="NDkicvjiBp9xYqSU2yI_-39">
          <mxGeometry x="410" y="60" width="180" height="50" as="geometry" />
        </mxCell>
        <mxCell id="NDkicvjiBp9xYqSU2yI_-6" value="" style="shape=module;jettyWidth=8;jettyHeight=4;" vertex="1" parent="NDkicvjiBp9xYqSU2yI_-5">
          <mxGeometry x="1" width="20" height="20" relative="1" as="geometry">
            <mxPoint x="-27" y="7" as="offset" />
          </mxGeometry>
        </mxCell>
        <mxCell id="Euic8BAIo_05AJF2AFwZ-58" value="" style="rounded=0;orthogonalLoop=1;jettySize=auto;html=1;endArrow=halfCircle;endFill=0;endSize=6;strokeWidth=1;sketch=0;exitX=0;exitY=0.5;exitDx=0;exitDy=0;entryX=1.289;entryY=0.556;entryDx=0;entryDy=0;entryPerimeter=0;" edge="1" parent="NDkicvjiBp9xYqSU2yI_-39" source="NDkicvjiBp9xYqSU2yI_-7" target="Euic8BAIo_05AJF2AFwZ-60">
          <mxGeometry relative="1" as="geometry">
            <mxPoint x="730" y="5" as="sourcePoint" />
            <mxPoint x="660" y="140" as="targetPoint" />
            <Array as="points">
              <mxPoint x="840" y="130" />
            </Array>
          </mxGeometry>
        </mxCell>
        <mxCell id="Euic8BAIo_05AJF2AFwZ-59" value="" style="rounded=0;orthogonalLoop=1;jettySize=auto;html=1;endArrow=oval;endFill=0;sketch=0;sourcePerimeterSpacing=0;targetPerimeterSpacing=0;endSize=10;exitX=1;exitY=0.75;exitDx=0;exitDy=0;" edge="1" parent="NDkicvjiBp9xYqSU2yI_-39" source="NDkicvjiBp9xYqSU2yI_-1" target="Euic8BAIo_05AJF2AFwZ-60">
          <mxGeometry relative="1" as="geometry">
            <mxPoint x="690" y="5" as="sourcePoint" />
          </mxGeometry>
        </mxCell>
        <mxCell id="Euic8BAIo_05AJF2AFwZ-60" value="" style="ellipse;whiteSpace=wrap;html=1;align=center;aspect=fixed;fillColor=none;strokeColor=none;resizable=0;perimeter=centerPerimeter;rotatable=0;allowArrows=0;points=[];outlineConnect=1;" vertex="1" parent="NDkicvjiBp9xYqSU2yI_-39">
          <mxGeometry x="640" y="130" width="10" height="10" as="geometry" />
        </mxCell>
        <mxCell id="NDkicvjiBp9xYqSU2yI_-16" value="SGO API Gateway" style="html=1;dropTarget=0;whiteSpace=wrap;" vertex="1" parent="1">
          <mxGeometry x="60" y="-400" width="1550" height="90" as="geometry" />
        </mxCell>
        <mxCell id="NDkicvjiBp9xYqSU2yI_-17" value="" style="shape=module;jettyWidth=8;jettyHeight=4;" vertex="1" parent="NDkicvjiBp9xYqSU2yI_-16">
          <mxGeometry x="1" width="20" height="20" relative="1" as="geometry">
            <mxPoint x="-27" y="7" as="offset" />
          </mxGeometry>
        </mxCell>
        <mxCell id="NDkicvjiBp9xYqSU2yI_-11" value="&lt;div&gt;&lt;br&gt;&lt;/div&gt;Banco de Dados" style="strokeWidth=2;html=1;shape=mxgraph.flowchart.database;whiteSpace=wrap;" vertex="1" parent="1">
          <mxGeometry x="30" y="340" width="1590" height="330" as="geometry" />
        </mxCell>
        <mxCell id="NDkicvjiBp9xYqSU2yI_-14" value="Interface do Usuário" style="html=1;dropTarget=0;whiteSpace=wrap;" vertex="1" parent="1">
          <mxGeometry x="720" y="-560" width="180" height="90" as="geometry" />
        </mxCell>
        <mxCell id="NDkicvjiBp9xYqSU2yI_-15" value="" style="shape=module;jettyWidth=8;jettyHeight=4;" vertex="1" parent="NDkicvjiBp9xYqSU2yI_-14">
          <mxGeometry x="1" width="20" height="20" relative="1" as="geometry">
            <mxPoint x="-27" y="7" as="offset" />
          </mxGeometry>
        </mxCell>
        <mxCell id="Euic8BAIo_05AJF2AFwZ-1" value="" style="rounded=0;orthogonalLoop=1;jettySize=auto;html=1;endArrow=halfCircle;endFill=0;endSize=6;strokeWidth=1;sketch=0;exitX=0.5;exitY=1;exitDx=0;exitDy=0;exitPerimeter=0;" edge="1" parent="1" source="NDkicvjiBp9xYqSU2yI_-99" target="Euic8BAIo_05AJF2AFwZ-3">
          <mxGeometry relative="1" as="geometry">
            <mxPoint x="130" y="-415" as="sourcePoint" />
          </mxGeometry>
        </mxCell>
        <mxCell id="Euic8BAIo_05AJF2AFwZ-2" value="" style="rounded=0;orthogonalLoop=1;jettySize=auto;html=1;endArrow=oval;endFill=0;sketch=0;sourcePerimeterSpacing=0;targetPerimeterSpacing=0;endSize=10;" edge="1" parent="1" target="Euic8BAIo_05AJF2AFwZ-3">
          <mxGeometry relative="1" as="geometry">
            <mxPoint x="810" y="-410" as="sourcePoint" />
          </mxGeometry>
        </mxCell>
        <mxCell id="Euic8BAIo_05AJF2AFwZ-3" value="" style="ellipse;whiteSpace=wrap;html=1;align=center;aspect=fixed;fillColor=none;strokeColor=none;resizable=0;perimeter=centerPerimeter;rotatable=0;allowArrows=0;points=[];outlineConnect=1;" vertex="1" parent="1">
          <mxGeometry x="805" y="-430" width="10" height="10" as="geometry" />
        </mxCell>
        <mxCell id="Euic8BAIo_05AJF2AFwZ-4" value="" style="ellipse;whiteSpace=wrap;html=1;align=center;aspect=fixed;fillColor=none;strokeColor=none;resizable=0;perimeter=centerPerimeter;rotatable=0;allowArrows=0;points=[];outlineConnect=1;" vertex="1" parent="1">
          <mxGeometry x="1260" y="-290" width="10" height="10" as="geometry" />
        </mxCell>
        <mxCell id="Euic8BAIo_05AJF2AFwZ-5" value="" style="rounded=0;orthogonalLoop=1;jettySize=auto;html=1;endArrow=halfCircle;endFill=0;endSize=6;strokeWidth=1;sketch=0;exitX=0.495;exitY=1.011;exitDx=0;exitDy=0;exitPerimeter=0;" edge="1" parent="1" source="NDkicvjiBp9xYqSU2yI_-82" target="Euic8BAIo_05AJF2AFwZ-7">
          <mxGeometry relative="1" as="geometry">
            <mxPoint x="850" y="-225" as="sourcePoint" />
          </mxGeometry>
        </mxCell>
        <mxCell id="Euic8BAIo_05AJF2AFwZ-6" value="" style="rounded=0;orthogonalLoop=1;jettySize=auto;html=1;endArrow=oval;endFill=0;sketch=0;sourcePerimeterSpacing=0;targetPerimeterSpacing=0;endSize=10;" edge="1" parent="1" target="Euic8BAIo_05AJF2AFwZ-7">
          <mxGeometry relative="1" as="geometry">
            <mxPoint x="822" y="-90" as="sourcePoint" />
          </mxGeometry>
        </mxCell>
        <mxCell id="Euic8BAIo_05AJF2AFwZ-7" value="" style="ellipse;whiteSpace=wrap;html=1;align=center;aspect=fixed;fillColor=none;strokeColor=none;resizable=0;perimeter=centerPerimeter;rotatable=0;allowArrows=0;points=[];outlineConnect=1;" vertex="1" parent="1">
          <mxGeometry x="817" y="-190" width="10" height="10" as="geometry" />
        </mxCell>
        <mxCell id="Euic8BAIo_05AJF2AFwZ-13" value="" style="rounded=0;orthogonalLoop=1;jettySize=auto;html=1;endArrow=halfCircle;endFill=0;endSize=6;strokeWidth=1;sketch=0;exitX=0.084;exitY=1.015;exitDx=0;exitDy=0;exitPerimeter=0;" edge="1" parent="1" source="NDkicvjiBp9xYqSU2yI_-82" target="Euic8BAIo_05AJF2AFwZ-15">
          <mxGeometry relative="1" as="geometry">
            <mxPoint x="790" y="-225" as="sourcePoint" />
          </mxGeometry>
        </mxCell>
        <mxCell id="Euic8BAIo_05AJF2AFwZ-14" value="" style="rounded=0;orthogonalLoop=1;jettySize=auto;html=1;endArrow=oval;endFill=0;sketch=0;sourcePerimeterSpacing=0;targetPerimeterSpacing=0;endSize=10;" edge="1" parent="1" target="Euic8BAIo_05AJF2AFwZ-15">
          <mxGeometry relative="1" as="geometry">
            <mxPoint x="165" y="-90" as="sourcePoint" />
          </mxGeometry>
        </mxCell>
        <mxCell id="Euic8BAIo_05AJF2AFwZ-15" value="" style="ellipse;whiteSpace=wrap;html=1;align=center;aspect=fixed;fillColor=none;strokeColor=none;resizable=0;perimeter=centerPerimeter;rotatable=0;allowArrows=0;points=[];outlineConnect=1;" vertex="1" parent="1">
          <mxGeometry x="160" y="-180" width="10" height="10" as="geometry" />
        </mxCell>
        <mxCell id="Euic8BAIo_05AJF2AFwZ-16" value="" style="rounded=0;orthogonalLoop=1;jettySize=auto;html=1;endArrow=halfCircle;endFill=0;endSize=6;strokeWidth=1;sketch=0;exitX=0.306;exitY=1;exitDx=0;exitDy=0;exitPerimeter=0;" edge="1" parent="1" source="NDkicvjiBp9xYqSU2yI_-82" target="Euic8BAIo_05AJF2AFwZ-18">
          <mxGeometry relative="1" as="geometry">
            <mxPoint x="510" y="-279" as="sourcePoint" />
          </mxGeometry>
        </mxCell>
        <mxCell id="Euic8BAIo_05AJF2AFwZ-17" value="" style="rounded=0;orthogonalLoop=1;jettySize=auto;html=1;endArrow=oval;endFill=0;sketch=0;sourcePerimeterSpacing=0;targetPerimeterSpacing=0;endSize=10;exitX=0.5;exitY=0;exitDx=0;exitDy=0;" edge="1" parent="1" source="NDkicvjiBp9xYqSU2yI_-5" target="Euic8BAIo_05AJF2AFwZ-18">
          <mxGeometry relative="1" as="geometry">
            <mxPoint x="410" y="-205" as="sourcePoint" />
          </mxGeometry>
        </mxCell>
        <mxCell id="Euic8BAIo_05AJF2AFwZ-18" value="" style="ellipse;whiteSpace=wrap;html=1;align=center;aspect=fixed;fillColor=none;strokeColor=none;resizable=0;perimeter=centerPerimeter;rotatable=0;allowArrows=0;points=[];outlineConnect=1;" vertex="1" parent="1">
          <mxGeometry x="515" y="-190" width="10" height="10" as="geometry" />
        </mxCell>
        <mxCell id="Euic8BAIo_05AJF2AFwZ-22" value="" style="rounded=0;orthogonalLoop=1;jettySize=auto;html=1;endArrow=halfCircle;endFill=0;endSize=6;strokeWidth=1;sketch=0;" edge="1" parent="1" target="Euic8BAIo_05AJF2AFwZ-24">
          <mxGeometry relative="1" as="geometry">
            <mxPoint x="1140" y="-280" as="sourcePoint" />
          </mxGeometry>
        </mxCell>
        <mxCell id="Euic8BAIo_05AJF2AFwZ-23" value="" style="rounded=0;orthogonalLoop=1;jettySize=auto;html=1;endArrow=oval;endFill=0;sketch=0;sourcePerimeterSpacing=0;targetPerimeterSpacing=0;endSize=10;exitX=0.5;exitY=0;exitDx=0;exitDy=0;" edge="1" parent="1" source="NDkicvjiBp9xYqSU2yI_-7" target="Euic8BAIo_05AJF2AFwZ-24">
          <mxGeometry relative="1" as="geometry">
            <mxPoint x="1110" y="-205" as="sourcePoint" />
          </mxGeometry>
        </mxCell>
        <mxCell id="Euic8BAIo_05AJF2AFwZ-24" value="" style="ellipse;whiteSpace=wrap;html=1;align=center;aspect=fixed;fillColor=none;strokeColor=none;resizable=0;perimeter=centerPerimeter;rotatable=0;allowArrows=0;points=[];outlineConnect=1;" vertex="1" parent="1">
          <mxGeometry x="1135" y="-190" width="10" height="10" as="geometry" />
        </mxCell>
        <mxCell id="Euic8BAIo_05AJF2AFwZ-25" value="" style="rounded=0;orthogonalLoop=1;jettySize=auto;html=1;endArrow=halfCircle;endFill=0;endSize=6;strokeWidth=1;sketch=0;" edge="1" parent="1" target="Euic8BAIo_05AJF2AFwZ-27">
          <mxGeometry relative="1" as="geometry">
            <mxPoint x="1510" y="-278" as="sourcePoint" />
          </mxGeometry>
        </mxCell>
        <mxCell id="Euic8BAIo_05AJF2AFwZ-26" value="" style="rounded=0;orthogonalLoop=1;jettySize=auto;html=1;endArrow=oval;endFill=0;sketch=0;sourcePerimeterSpacing=0;targetPerimeterSpacing=0;endSize=10;exitX=0.5;exitY=0;exitDx=0;exitDy=0;" edge="1" parent="1" source="NDkicvjiBp9xYqSU2yI_-9" target="Euic8BAIo_05AJF2AFwZ-27">
          <mxGeometry relative="1" as="geometry">
            <mxPoint x="1480" y="-195" as="sourcePoint" />
          </mxGeometry>
        </mxCell>
        <mxCell id="Euic8BAIo_05AJF2AFwZ-27" value="" style="ellipse;whiteSpace=wrap;html=1;align=center;aspect=fixed;fillColor=none;strokeColor=none;resizable=0;perimeter=centerPerimeter;rotatable=0;allowArrows=0;points=[];outlineConnect=1;" vertex="1" parent="1">
          <mxGeometry x="1505" y="-200" width="10" height="10" as="geometry" />
        </mxCell>
        <mxCell id="Euic8BAIo_05AJF2AFwZ-28" value="" style="rounded=0;orthogonalLoop=1;jettySize=auto;html=1;endArrow=halfCircle;endFill=0;endSize=6;strokeWidth=1;sketch=0;exitX=0.5;exitY=1;exitDx=0;exitDy=0;" edge="1" parent="1" source="NDkicvjiBp9xYqSU2yI_-3" target="Euic8BAIo_05AJF2AFwZ-30">
          <mxGeometry relative="1" as="geometry">
            <mxPoint x="867" y="255" as="sourcePoint" />
          </mxGeometry>
        </mxCell>
        <mxCell id="Euic8BAIo_05AJF2AFwZ-29" value="" style="rounded=0;orthogonalLoop=1;jettySize=auto;html=1;endArrow=oval;endFill=0;sketch=0;sourcePerimeterSpacing=0;targetPerimeterSpacing=0;endSize=10;" edge="1" parent="1" target="Euic8BAIo_05AJF2AFwZ-30">
          <mxGeometry relative="1" as="geometry">
            <mxPoint x="825" y="337" as="sourcePoint" />
          </mxGeometry>
        </mxCell>
        <mxCell id="Euic8BAIo_05AJF2AFwZ-30" value="" style="ellipse;whiteSpace=wrap;html=1;align=center;aspect=fixed;fillColor=none;strokeColor=none;resizable=0;perimeter=centerPerimeter;rotatable=0;allowArrows=0;points=[];outlineConnect=1;" vertex="1" parent="1">
          <mxGeometry x="820" y="240" width="10" height="10" as="geometry" />
        </mxCell>
        <mxCell id="Euic8BAIo_05AJF2AFwZ-33" value="" style="ellipse;whiteSpace=wrap;html=1;align=center;aspect=fixed;fillColor=none;strokeColor=none;resizable=0;perimeter=centerPerimeter;rotatable=0;allowArrows=0;points=[];outlineConnect=1;" vertex="1" parent="1">
          <mxGeometry x="515" y="250" width="10" height="10" as="geometry" />
        </mxCell>
        <mxCell id="Euic8BAIo_05AJF2AFwZ-34" value="" style="rounded=0;orthogonalLoop=1;jettySize=auto;html=1;endArrow=halfCircle;endFill=0;endSize=6;strokeWidth=1;sketch=0;exitX=0.5;exitY=1;exitDx=0;exitDy=0;" edge="1" parent="1" source="NDkicvjiBp9xYqSU2yI_-5" target="Euic8BAIo_05AJF2AFwZ-36">
          <mxGeometry relative="1" as="geometry">
            <mxPoint x="540" y="195" as="sourcePoint" />
          </mxGeometry>
        </mxCell>
        <mxCell id="Euic8BAIo_05AJF2AFwZ-35" value="" style="rounded=0;orthogonalLoop=1;jettySize=auto;html=1;endArrow=oval;endFill=0;sketch=0;sourcePerimeterSpacing=0;targetPerimeterSpacing=0;endSize=10;exitX=0.308;exitY=0.015;exitDx=0;exitDy=0;exitPerimeter=0;" edge="1" parent="1" source="NDkicvjiBp9xYqSU2yI_-11" target="Euic8BAIo_05AJF2AFwZ-36">
          <mxGeometry relative="1" as="geometry">
            <mxPoint x="500" y="195" as="sourcePoint" />
          </mxGeometry>
        </mxCell>
        <mxCell id="Euic8BAIo_05AJF2AFwZ-36" value="" style="ellipse;whiteSpace=wrap;html=1;align=center;aspect=fixed;fillColor=none;strokeColor=none;resizable=0;perimeter=centerPerimeter;rotatable=0;allowArrows=0;points=[];outlineConnect=1;" vertex="1" parent="1">
          <mxGeometry x="515" y="230" width="10" height="10" as="geometry" />
        </mxCell>
        <mxCell id="Euic8BAIo_05AJF2AFwZ-37" value="" style="rounded=0;orthogonalLoop=1;jettySize=auto;html=1;endArrow=halfCircle;endFill=0;endSize=6;strokeWidth=1;sketch=0;exitX=0.5;exitY=1;exitDx=0;exitDy=0;" edge="1" parent="1" source="NDkicvjiBp9xYqSU2yI_-1" target="Euic8BAIo_05AJF2AFwZ-39">
          <mxGeometry relative="1" as="geometry">
            <mxPoint x="350" y="245" as="sourcePoint" />
          </mxGeometry>
        </mxCell>
        <mxCell id="Euic8BAIo_05AJF2AFwZ-38" value="" style="rounded=0;orthogonalLoop=1;jettySize=auto;html=1;endArrow=oval;endFill=0;sketch=0;sourcePerimeterSpacing=0;targetPerimeterSpacing=0;endSize=10;exitX=0.057;exitY=0.089;exitDx=0;exitDy=0;exitPerimeter=0;" edge="1" parent="1" source="NDkicvjiBp9xYqSU2yI_-11" target="Euic8BAIo_05AJF2AFwZ-39">
          <mxGeometry relative="1" as="geometry">
            <mxPoint x="159" y="360" as="sourcePoint" />
          </mxGeometry>
        </mxCell>
        <mxCell id="Euic8BAIo_05AJF2AFwZ-39" value="" style="ellipse;whiteSpace=wrap;html=1;align=center;aspect=fixed;fillColor=none;strokeColor=none;resizable=0;perimeter=centerPerimeter;rotatable=0;allowArrows=0;points=[];outlineConnect=1;" vertex="1" parent="1">
          <mxGeometry x="115" y="240" width="10" height="10" as="geometry" />
        </mxCell>
        <mxCell id="Euic8BAIo_05AJF2AFwZ-40" value="" style="rounded=0;orthogonalLoop=1;jettySize=auto;html=1;endArrow=halfCircle;endFill=0;endSize=6;strokeWidth=1;sketch=0;exitX=0.5;exitY=1;exitDx=0;exitDy=0;" edge="1" parent="1" source="NDkicvjiBp9xYqSU2yI_-7" target="Euic8BAIo_05AJF2AFwZ-42">
          <mxGeometry relative="1" as="geometry">
            <mxPoint x="1080" y="165" as="sourcePoint" />
          </mxGeometry>
        </mxCell>
        <mxCell id="Euic8BAIo_05AJF2AFwZ-41" value="" style="rounded=0;orthogonalLoop=1;jettySize=auto;html=1;endArrow=oval;endFill=0;sketch=0;sourcePerimeterSpacing=0;targetPerimeterSpacing=0;endSize=10;" edge="1" parent="1" target="Euic8BAIo_05AJF2AFwZ-42">
          <mxGeometry relative="1" as="geometry">
            <mxPoint x="1140" y="340" as="sourcePoint" />
          </mxGeometry>
        </mxCell>
        <mxCell id="Euic8BAIo_05AJF2AFwZ-42" value="" style="ellipse;whiteSpace=wrap;html=1;align=center;aspect=fixed;fillColor=none;strokeColor=none;resizable=0;perimeter=centerPerimeter;rotatable=0;allowArrows=0;points=[];outlineConnect=1;" vertex="1" parent="1">
          <mxGeometry x="1135" y="240" width="10" height="10" as="geometry" />
        </mxCell>
        <mxCell id="Euic8BAIo_05AJF2AFwZ-43" value="" style="rounded=0;orthogonalLoop=1;jettySize=auto;html=1;endArrow=halfCircle;endFill=0;endSize=6;strokeWidth=1;sketch=0;exitX=0.5;exitY=1;exitDx=0;exitDy=0;" edge="1" parent="1" source="NDkicvjiBp9xYqSU2yI_-9" target="Euic8BAIo_05AJF2AFwZ-45">
          <mxGeometry relative="1" as="geometry">
            <mxPoint x="1480" y="195" as="sourcePoint" />
          </mxGeometry>
        </mxCell>
        <mxCell id="Euic8BAIo_05AJF2AFwZ-44" value="" style="rounded=0;orthogonalLoop=1;jettySize=auto;html=1;endArrow=oval;endFill=0;sketch=0;sourcePerimeterSpacing=0;targetPerimeterSpacing=0;endSize=10;exitX=0.931;exitY=0.091;exitDx=0;exitDy=0;exitPerimeter=0;" edge="1" parent="1" source="NDkicvjiBp9xYqSU2yI_-11" target="Euic8BAIo_05AJF2AFwZ-45">
          <mxGeometry relative="1" as="geometry">
            <mxPoint x="1510" y="360" as="sourcePoint" />
          </mxGeometry>
        </mxCell>
        <mxCell id="Euic8BAIo_05AJF2AFwZ-45" value="" style="ellipse;whiteSpace=wrap;html=1;align=center;aspect=fixed;fillColor=none;strokeColor=none;resizable=0;perimeter=centerPerimeter;rotatable=0;allowArrows=0;points=[];outlineConnect=1;" vertex="1" parent="1">
          <mxGeometry x="1505" y="250" width="10" height="10" as="geometry" />
        </mxCell>
        <mxCell id="Euic8BAIo_05AJF2AFwZ-46" value="" style="rounded=0;orthogonalLoop=1;jettySize=auto;html=1;endArrow=halfCircle;endFill=0;endSize=6;strokeWidth=1;sketch=0;exitX=1;exitY=0.5;exitDx=0;exitDy=0;" edge="1" parent="1" source="NDkicvjiBp9xYqSU2yI_-1" target="Euic8BAIo_05AJF2AFwZ-48">
          <mxGeometry relative="1" as="geometry">
            <mxPoint x="380" y="85" as="sourcePoint" />
          </mxGeometry>
        </mxCell>
        <mxCell id="Euic8BAIo_05AJF2AFwZ-47" value="" style="rounded=0;orthogonalLoop=1;jettySize=auto;html=1;endArrow=oval;endFill=0;sketch=0;sourcePerimeterSpacing=0;targetPerimeterSpacing=0;endSize=10;exitX=0;exitY=0.5;exitDx=0;exitDy=0;" edge="1" parent="1" source="NDkicvjiBp9xYqSU2yI_-5" target="Euic8BAIo_05AJF2AFwZ-48">
          <mxGeometry relative="1" as="geometry">
            <mxPoint x="340" y="85" as="sourcePoint" />
          </mxGeometry>
        </mxCell>
        <mxCell id="Euic8BAIo_05AJF2AFwZ-48" value="" style="ellipse;whiteSpace=wrap;html=1;align=center;aspect=fixed;fillColor=none;strokeColor=none;resizable=0;perimeter=centerPerimeter;rotatable=0;allowArrows=0;points=[];outlineConnect=1;" vertex="1" parent="1">
          <mxGeometry x="320" y="-70" width="10" height="10" as="geometry" />
        </mxCell>
        <mxCell id="Euic8BAIo_05AJF2AFwZ-52" value="" style="rounded=0;orthogonalLoop=1;jettySize=auto;html=1;endArrow=halfCircle;endFill=0;endSize=6;strokeWidth=1;sketch=0;exitX=1;exitY=0.5;exitDx=0;exitDy=0;" edge="1" parent="1" source="NDkicvjiBp9xYqSU2yI_-7" target="Euic8BAIo_05AJF2AFwZ-54">
          <mxGeometry relative="1" as="geometry">
            <mxPoint x="1360" y="-165" as="sourcePoint" />
          </mxGeometry>
        </mxCell>
        <mxCell id="Euic8BAIo_05AJF2AFwZ-53" value="" style="rounded=0;orthogonalLoop=1;jettySize=auto;html=1;endArrow=oval;endFill=0;sketch=0;sourcePerimeterSpacing=0;targetPerimeterSpacing=0;endSize=10;exitX=0;exitY=0.5;exitDx=0;exitDy=0;" edge="1" parent="1" source="NDkicvjiBp9xYqSU2yI_-9" target="Euic8BAIo_05AJF2AFwZ-54">
          <mxGeometry relative="1" as="geometry">
            <mxPoint x="1320" y="-165" as="sourcePoint" />
          </mxGeometry>
        </mxCell>
        <mxCell id="Euic8BAIo_05AJF2AFwZ-54" value="" style="ellipse;whiteSpace=wrap;html=1;align=center;aspect=fixed;fillColor=none;strokeColor=none;resizable=0;perimeter=centerPerimeter;rotatable=0;allowArrows=0;points=[];outlineConnect=1;" vertex="1" parent="1">
          <mxGeometry x="1335" y="-70" width="10" height="10" as="geometry" />
        </mxCell>
        <mxCell id="Euic8BAIo_05AJF2AFwZ-55" value="" style="rounded=0;orthogonalLoop=1;jettySize=auto;html=1;endArrow=halfCircle;endFill=0;endSize=6;strokeWidth=1;sketch=0;exitX=0;exitY=0.25;exitDx=0;exitDy=0;" edge="1" parent="1" source="NDkicvjiBp9xYqSU2yI_-3" target="Euic8BAIo_05AJF2AFwZ-57">
          <mxGeometry relative="1" as="geometry">
            <mxPoint x="670" y="-145" as="sourcePoint" />
          </mxGeometry>
        </mxCell>
        <mxCell id="Euic8BAIo_05AJF2AFwZ-56" value="" style="rounded=0;orthogonalLoop=1;jettySize=auto;html=1;endArrow=oval;endFill=0;sketch=0;sourcePerimeterSpacing=0;targetPerimeterSpacing=0;endSize=10;exitX=1;exitY=0.25;exitDx=0;exitDy=0;" edge="1" parent="1" source="NDkicvjiBp9xYqSU2yI_-1" target="Euic8BAIo_05AJF2AFwZ-57">
          <mxGeometry relative="1" as="geometry">
            <mxPoint x="630" y="-145" as="sourcePoint" />
            <Array as="points">
              <mxPoint x="440" y="-105" />
            </Array>
          </mxGeometry>
        </mxCell>
        <mxCell id="Euic8BAIo_05AJF2AFwZ-57" value="" style="ellipse;whiteSpace=wrap;html=1;align=center;aspect=fixed;fillColor=none;strokeColor=none;resizable=0;perimeter=centerPerimeter;rotatable=0;allowArrows=0;points=[];outlineConnect=1;" vertex="1" parent="1">
          <mxGeometry x="660" y="-110" width="10" height="10" as="geometry" />
        </mxCell>
      </root>
    </mxGraphModel>
  </diagram>
</mxfile>
